<?xml version="1.0" encoding="UTF-8" standalone="no"?>
<!-- Created with Inkscape (http://www.inkscape.org/) -->

<svg
   width="1200"
   height="600"
   viewBox="0 0 317.5 158.75"
   version="1.1"
   id="svg1"
   xml:space="preserve"
   inkscape:version="1.3 (0e150ed6c4, 2023-07-21)"
   sodipodi:docname="bg_login.svg"
   xmlns:inkscape="http://www.inkscape.org/namespaces/inkscape"
   xmlns:sodipodi="http://sodipodi.sourceforge.net/DTD/sodipodi-0.dtd"
   xmlns:xlink="http://www.w3.org/1999/xlink"
   xmlns="http://www.w3.org/2000/svg"
   xmlns:svg="http://www.w3.org/2000/svg"><sodipodi:namedview
     id="namedview1"
     pagecolor="#ffffff"
     bordercolor="#000000"
     borderopacity="0.25"
     inkscape:showpageshadow="2"
     inkscape:pageopacity="0.0"
     inkscape:pagecheckerboard="0"
     inkscape:deskcolor="#d1d1d1"
     inkscape:document-units="px"
     inkscape:zoom="0.58781078"
     inkscape:cx="544.39287"
     inkscape:cy="322.38265"
     inkscape:window-width="1360"
     inkscape:window-height="705"
     inkscape:window-x="-8"
     inkscape:window-y="-8"
     inkscape:window-maximized="1"
     inkscape:current-layer="layer1" /><defs
     id="defs1"><linearGradient
       id="linearGradient87"
       inkscape:collect="always"><stop
         style="stop-color:#e0eaff;stop-opacity:0.870588;"
         offset="0"
         id="stop87" /><stop
         style="stop-color:#e0eaff;stop-opacity:0;"
         offset="1"
         id="stop88" /></linearGradient><linearGradient
       id="swatch46"
       inkscape:swatch="solid"><stop
         style="stop-color:#ffffff;stop-opacity:1;"
         offset="0"
         id="stop46" /></linearGradient><inkscape:path-effect
       effect="powerclip"
       id="path-effect42"
       is_visible="true"
       lpeversion="1"
       inverse="true"
       flatten="false"
       hide_clip="false"
       message="Utilice la regla de relleno parimpar en el diálogo &lt;b&gt;Relleno y borde&lt;/b&gt; si el resultado no está aplanada después de convertir el recorte en trayectos." /><clipPath
       clipPathUnits="userSpaceOnUse"
       id="clipPath14"><rect
         style="fill:#004ef7;fill-opacity:0.87218;stroke-width:0.298566"
         id="rect14"
         width="64.2575"
         height="115.80872"
         x="133.80682"
         y="12.081784"
         ry="6.5204978" /></clipPath><filter
       inkscape:collect="always"
       style="color-interpolation-filters:sRGB"
       id="filter15"
       x="-8.976697e-06"
       y="-0.0013027099"
       width="1.000018"
       height="1.0026054"><feGaussianBlur
         inkscape:collect="always"
         stdDeviation="0.001 0.111"
         id="feGaussianBlur15" /></filter><clipPath
       clipPathUnits="userSpaceOnUse"
       id="clipPath15"><g
         id="g16"><rect
           style="fill:#004ef7;fill-opacity:0.87218;stroke-width:0.33988"
           id="rect15"
           width="75.421738"
           height="127.86127"
           x="64.863632"
           y="3.2900414"
           ry="7.1991048"
           transform="matrix(0.99996757,0.00805339,-0.0067139,0.99997746,0,0)" /></g></clipPath><clipPath
       clipPathUnits="userSpaceOnUse"
       id="clipPath16"><g
         id="g17"
         transform="matrix(0.99997835,-0.0080534,0.00671391,0.99996846,0,0)"><rect
           style="fill:#004ef7;fill-opacity:0.87218;stroke-width:0.33988"
           id="rect16"
           width="75.421738"
           height="127.86127"
           x="64.863632"
           y="3.2900414"
           ry="7.1991048"
           transform="matrix(0.99996757,0.00805339,-0.0067139,0.99997746,0,0)" /></g></clipPath><filter
       inkscape:collect="always"
       style="color-interpolation-filters:sRGB"
       id="filter17"
       x="-0.15114563"
       y="-0.16885357"
       width="1.3022913"
       height="1.3377071"><feGaussianBlur
         inkscape:collect="always"
         stdDeviation="8.1225843"
         id="feGaussianBlur17" /></filter><filter
       style="color-interpolation-filters:sRGB"
       inkscape:label="Drop Shadow"
       id="filter31"
       x="-0.14893588"
       y="-0.16329116"
       width="1.3886809"
       height="1.4261441"><feFlood
         result="flood"
         in="SourceGraphic"
         flood-opacity="0.498039"
         flood-color="rgb(0,0,0)"
         id="feFlood30" /><feGaussianBlur
         result="blur"
         in="SourceGraphic"
         stdDeviation="0.050123699"
         id="feGaussianBlur30" /><feOffset
         result="offset"
         in="blur"
         dx="1.000000"
         dy="1.000000"
         id="feOffset30" /><feComposite
         result="comp1"
         operator="in"
         in="flood"
         in2="offset"
         id="feComposite30" /><feComposite
         result="fbSourceGraphic"
         operator="over"
         in="SourceGraphic"
         in2="comp1"
         id="feComposite31" /><feColorMatrix
         result="fbSourceGraphicAlpha"
         in="fbSourceGraphic"
         values="0 0 0 -1 0 0 0 0 -1 0 0 0 0 -1 0 0 0 0 1 0"
         id="feColorMatrix31" /><feFlood
         id="feFlood31"
         result="flood"
         in="fbSourceGraphic"
         flood-opacity="0.498039"
         flood-color="rgb(0,0,0)" /><feGaussianBlur
         id="feGaussianBlur31"
         result="blur"
         in="fbSourceGraphic"
         stdDeviation="1.000000" /><feOffset
         id="feOffset31"
         result="offset"
         in="blur"
         dx="1.000000"
         dy="1.000000" /><feComposite
         id="feComposite32"
         result="comp1"
         operator="in"
         in="flood"
         in2="offset" /><feComposite
         id="feComposite33"
         result="fbSourceGraphic"
         operator="over"
         in="fbSourceGraphic"
         in2="comp1" /><feColorMatrix
         result="fbSourceGraphicAlpha"
         in="fbSourceGraphic"
         values="0 0 0 -1 0 0 0 0 -1 0 0 0 0 -1 0 0 0 0 1 0"
         id="feColorMatrix33" /><feFlood
         id="feFlood33"
         result="flood"
         in="fbSourceGraphic"
         flood-opacity="0.498039"
         flood-color="rgb(0,0,0)" /><feGaussianBlur
         id="feGaussianBlur33"
         result="blur"
         in="fbSourceGraphic"
         stdDeviation="1.000000" /><feOffset
         id="feOffset33"
         result="offset"
         in="blur"
         dx="1.000000"
         dy="1.000000" /><feComposite
         id="feComposite34"
         result="comp1"
         operator="in"
         in="flood"
         in2="offset" /><feComposite
         id="feComposite35"
         result="comp2"
         operator="over"
         in="fbSourceGraphic"
         in2="comp1" /></filter><clipPath
       clipPathUnits="userSpaceOnUse"
       id="clipPath42"><path
         style="display:block;fill:#00ffff;fill-opacity:0.870588;stroke-width:0.265737"
         d="m 75.585062,8.9793719 c 0,0 2.559431,2.3916811 3.983654,3.3899461 2.032198,1.424407 4.145843,2.805556 6.456264,3.672441 2.893529,1.085669 6.013686,1.413281 9.066247,1.83622 3.094104,0.428693 9.340983,0.706238 9.340983,0.706238 0,0 0.3874,-6.015081 -0.1202,-7.755826 C 103.79858,9.0676705 100.07079,4.8908665 98.147652,4.3258755 96.224506,3.7608848 88.876834,0.92357912 84.37129,2.0838289 82.401427,2.5911003 79.129121,3.3543144 77.320604,5.0748016 75.819054,6.5032614 75.585062,8.9793719 75.585062,8.9793719 Z"
         id="path42"
         sodipodi:nodetypes="caaacssssc" /></clipPath><filter
       style="color-interpolation-filters:sRGB"
       inkscape:label="Drop Shadow"
       id="filter83"
       x="-0.016725758"
       y="-0.016786317"
       width="1.0696017"
       height="1.039375"><feFlood
         result="flood"
         in="SourceGraphic"
         flood-opacity="0.498039"
         flood-color="rgb(0,0,0)"
         id="feFlood82" /><feGaussianBlur
         result="blur"
         in="SourceGraphic"
         stdDeviation="1.000000"
         id="feGaussianBlur82" /><feOffset
         result="offset"
         in="blur"
         dx="1.000000"
         dy="1.000000"
         id="feOffset82" /><feComposite
         result="comp1"
         operator="in"
         in="flood"
         in2="offset"
         id="feComposite82" /><feComposite
         result="comp2"
         operator="atop"
         in="comp1"
         in2="comp1"
         id="feComposite83" /></filter><linearGradient
       inkscape:collect="always"
       xlink:href="#linearGradient87"
       id="linearGradient3"
       gradientUnits="userSpaceOnUse"
       x1="117.32203"
       y1="144.97836"
       x2="23.052856"
       y2="147.5843" /></defs><g
     inkscape:label="Capa 1"
     inkscape:groupmode="layer"
     id="layer1"
     transform="translate(23.042264,-1.9157619)"><g
       id="g73"
       transform="matrix(1.0538185,0,0,0.74099672,-23.692521,7.3514776)"
       style="fill:#ffffff;fill-opacity:0"><path
         style="fill:url(#linearGradient3);fill-opacity:1;stroke:none;stroke-width:0.321517;stroke-opacity:1;filter:url(#filter15)"
         d="M 6.4737663,12.811767 C 7.6214902,10.336897 23.418366,-4.0408664 52.623038,1.7766339 71.824372,5.6014933 81.950348,16.756695 77.702352,38.31368 72.07204,66.885397 61.375086,79.236084 80.784888,92.598061 c 25.957332,17.869389 9.514575,38.480549 6.845567,47.786059 -12.879707,44.90519 57.988255,43.59451 67.457055,39.67624 18.49808,-7.65467 24.81612,-17.64014 31.92741,-39.93054 7.77626,-24.37479 -3.03067,-58.390136 32.91995,-64.457459 13.03323,-2.199594 26.23716,-3.396797 26.30315,-25.072462 0.1091,-35.841695 23.00513,-29.010058 22.40637,-42.5965121 -1.5546,-35.2754109 -0.3972,196.8956031 -0.3972,196.8956031 0,0 -35.50051,-0.51777 -47.71584,-0.36956 -39.87245,0.48375 -97.41843,-0.0859 -113.49584,-0.0604 -40.064258,0.0635 -55.870109,-1.25896 -81.954966,-0.2086 0,0 -23.3171966,3.17567 -23.2331195,-19.36908 C 1.935803,161.19317 1.1242495,118.55332 1.3307849,81.089837 1.506897,49.144836 2.9176132,20.480003 6.4737663,12.811767 Z"
         id="path2"
         sodipodi:nodetypes="sssssssssscsscsss"
         transform="matrix(1.1248087,0,0,1.0489492,-0.00561154,-9.0673888)" /></g><ellipse
       style="mix-blend-mode:normal;fill:#ebedf1;fill-opacity:0.870588;stroke-width:0.328323;filter:url(#filter17)"
       id="path8-5"
       cx="72.149673"
       cy="68.222298"
       rx="64.488144"
       ry="57.72517"
       transform="matrix(0.88509894,0.00747411,-0.00594266,0.9280493,-79.469776,22.150237)"
       clip-path="url(#clipPath16)" /><path
       style="fill:#000080;stroke-width:0.264583"
       d="m 15.686212,303.95251 3.600114,0.25715"
       id="path3" /><path
       style="fill:#000080;stroke-width:0.264583"
       d="M 19.029175,307.29547 H 31.115272"
       id="path4" /><path
       style="fill:#000080;stroke-width:0.264583"
       d="m 32.143877,282.86612 -2.314358,-4.37158"
       id="path5" /><path
       style="fill:#000080;stroke-width:0.264583"
       d="m 28.800914,278.75171 -2.57151,-4.88587"
       id="path6" /><g
       id="g8"
       transform="matrix(0.90203101,0.00802996,-0.00569686,0.93788574,-143.71263,14.856732)"
       clip-path="url(#clipPath14)"><ellipse
         style="fill:#bcd1ff;fill-opacity:0.87218;stroke-width:0.288414"
         id="path8"
         cx="140.01436"
         cy="70.893349"
         rx="54.942345"
         ry="52.28384" /><path
         style="fill:#86ac81;fill-opacity:0.98039216;stroke-width:0.264583"
         d="m 99.291238,36.228679 2.938872,6.171623 2.93887,4.702191 -1.17555,2.057207 7.64106,3.82053 1.46944,-1.175546 2.64498,1.469432 -0.29389,0.88166 2.3511,0.587775 8.8166,6.465508 1.76332,5.28997 -2.64498,3.23275 v 2.351101 c 0,0 -2.05721,1.17555 -0.58777,2.05721 1.46943,0.88166 2.93887,2.0572 2.93887,2.0572 l 1.17555,4.70219 1.46943,0.58778 0.88166,2.93887 3.52664,2.644975 c 0,0 2.05721,1.46943 2.05721,2.93887 0,1.46944 -0.58777,4.11442 -0.58777,4.11442 l 0.88166,2.3511 c 0,0 -0.58777,1.17555 0,3.23276 0.58777,2.057205 1.17555,3.820525 1.17555,3.820525 0,0 -0.58778,0.58778 -0.58778,2.64498 0,2.05721 0.88166,3.52665 0.88166,3.52665 0,0 2.64499,3.82053 2.64499,4.99608 0,1.17554 0.88166,6.17162 0.88166,6.17162 l 3.82052,2.35109 1.46944,-5.87773 -1.64378,-1.33495 1.04604,-1.25524 v -1.04604 l 0.83684,-1.25525 -0.20921,-1.25524 0.83683,-1.25525 -0.41842,-1.04604 3.55653,-0.41841 1.88287,-3.97494 3.76574,-4.602575 -0.20921,-1.04604 0.62762,-0.62762 0.41842,-3.76574 3.97494,-2.51049 1.25525,0.62762 2.7197,-7.949895 -0.41842,-2.51049 2.7197,-4.39336 -1.04604,-3.97494 -3.13811,-2.092081 h -1.25525 l -5.02098,-2.51049 -1.04604,0.62762 -2.9289,-3.13811 c 0,0 0,-2.51049 -1.04604,-2.92891 -1.04604,-0.41841 -4.60257,-0.62762 -4.60257,-0.62762 0,0 -1.67366,-0.62762 -1.88287,-1.46446 -0.20921,-0.83682 -4.60257,-3.34732 -4.60257,-3.34732 l -9.20513,-1.046034 -9.27694,-4.639942 -2.95389,-6.498556 -1.77233,1.181555 -0.59078,0.590778 -7.08933,-1.772333 2.36311,-6.203169 3.24928,-1.476944 1.18155,-0.886166 2.95389,1.476943 4.43084,-1.181555 5.02161,-1.772335 2.36311,-2.953888 2.6585,-1.476946 -0.29539,-2.658499 5.317,-2.95389 2.06772,-1.181555 3.84006,-2.363113 2.6585,-2.363113 c 0,0 -1.733,-0.759616 -2.65849,-0.886166 -7.81417,-1.068504 -16.14209,-1.291757 -23.63112,1.181558 -8.76473,2.894624 -22.744953,13.88328 -23.040343,15.360224 z"
         id="path7"
         sodipodi:nodetypes="cccccccccccccscccccsccscscscccccccccccccccccccccccccccscsccccccccccccccccccccaacc" /></g></g></svg>
